Coordinates
version=1
nRows=33
nColumns=38
inDegrees=no

Units are S.I. units (second, meters, Newtons, ...)
If the header above contains a line with 'inDegrees', this indicates whether rotational values are in degrees (yes) or radians (no).

endheader
time	pelvis_tilt	pelvis_list	pelvis_rotation	pelvis_tx	pelvis_ty	pelvis_tz	hip_flexion_r	hip_adduction_r	hip_rotation_r	knee_angle_r	ankle_angle_r	subtalar_angle_r	mtp_angle_r	hip_flexion_l	hip_adduction_l	hip_rotation_l	knee_angle_l	ankle_angle_l	subtalar_angle_l	mtp_angle_l	lumbar_extension	lumbar_bending	lumbar_rotation	arm_flex_r	arm_add_r	arm_rot_r	elbow_flex_r	pro_sup_r	wrist_flex_r	wrist_dev_r	arm_flex_l	arm_add_l	arm_rot_l	elbow_flex_l	pro_sup_l	wrist_flex_l	wrist_dev_l
2.85833	-0.0449155	-0.120112	-0.165387	0.925847	0.979657	-0.637797	0.639205	0.175277	-0.332857	-0.83376	0.485005	0.1	8.4727e-06	-0.00381148	-0.204099	-0.289446	-1.96947	0.0990067	0.1	-8.60161e-06	-0.303503	0.130059	-0.0341243	-0.550553	-0.362388	-0.237812	1.8738	2.1394	-0.0278763	-0.0186735	-0.246288	-0.247197	0.169826	1.98925	1.76446	0.0197158	-0.0137003
2.86667	-0.0439763	-0.130569	-0.171553	0.92182	0.97667	-0.637893	0.625511	0.183575	-0.320149	-0.892972	0.537692	0.1	8.4727e-06	0.0631671	-0.224251	-0.273042	-2.05135	0.121828	0.1	-8.60161e-06	-0.318159	0.137659	-0.00810359	-0.482788	-0.377414	-0.212582	1.85458	2.13289	-0.0278763	-0.0186735	-0.243524	-0.246453	0.171816	1.93295	1.76275	0.0197158	-0.0137003
2.875	-0.0442519	-0.139885	-0.176456	0.917692	0.974134	-0.638165	0.60638	0.18846	-0.312138	-0.941993	0.594819	0.1	8.4727e-06	0.136294	-0.241736	-0.251617	-2.12284	0.143584	0.1	-8.60161e-06	-0.330979	0.144177	0.0181592	-0.413847	-0.392313	-0.187137	1.83691	2.12313	-0.0278763	-0.0186735	-0.240694	-0.246449	0.175622	1.87963	1.76125	0.0197158	-0.0137003
2.88333	-0.0451161	-0.147937	-0.180522	0.913649	0.972195	-0.638562	0.580478	0.189515	-0.308754	-0.979408	0.652632	0.1	8.4727e-06	0.213672	-0.256301	-0.226703	-2.18242	0.163031	0.1	-8.60161e-06	-0.342218	0.149388	0.0450805	-0.34561	-0.406919	-0.163	1.82357	2.11087	-0.0278763	-0.0186735	-0.238848	-0.247588	0.181372	1.8324	1.76009	0.0197158	-0.0137003
2.89167	-0.0461358	-0.154317	-0.184312	0.909882	0.97097	-0.639016	0.547392	0.186175	-0.309488	-1.00503	0.708326	0.1	8.4727e-06	0.293277	-0.2677	-0.200301	-2.22877	0.179253	0.1	-8.60161e-06	-0.351874	0.15274	0.0730241	-0.280004	-0.420983	-0.141659	1.81726	2.09735	-0.0278763	-0.0186735	-0.239078	-0.250344	0.188974	1.79417	1.7597	0.0197158	-0.0137003
2.9	-0.0471528	-0.158354	-0.188451	0.906552	0.970511	-0.639448	0.507571	0.177827	-0.313476	-1.01952	0.759844	0.1	8.4727e-06	0.373196	-0.27574	-0.174685	-2.26091	0.191795	0.1	-8.60161e-06	-0.359602	0.153415	0.102205	-0.218757	-0.434156	-0.12435	1.82014	2.0841	-0.0278763	-0.0186735	-0.242416	-0.255182	0.198049	1.76722	1.76082	0.0197158	-0.0137003
2.90833	-0.0482969	-0.159245	-0.193525	0.903792	0.970812	-0.63977	0.462121	0.163994	-0.319602	-1.02393	0.805364	0.1	8.4727e-06	0.451795	-0.280342	-0.152133	-2.27827	0.200685	0.1	-8.60161e-06	-0.364733	0.150495	0.132616	-0.163199	-0.446012	-0.111865	1.83352	2.0727	-0.0278763	-0.0186735	-0.249738	-0.262443	0.207912	1.75286	1.7644	0.0197158	-0.0137003
2.91667	-0.0499341	-0.156227	-0.199961	0.901703	0.971827	-0.639898	0.412527	0.144509	-0.326714	-1.01924	0.842854	0.1	8.4727e-06	0.527807	-0.281587	-0.134626	-2.28075	0.206375	0.1	-8.60161e-06	-0.366382	0.143189	0.163989	-0.114144	-0.4561	-0.104413	1.85763	2.06429	-0.0278763	-0.0186735	-0.261701	-0.272256	0.217627	1.75121	1.77136	0.0197158	-0.0137003
2.925	-0.0525626	-0.148749	-0.207909	0.90036	0.97349	-0.639767	0.360364	0.119593	-0.333922	-1.00614	0.86993	0.1	8.4727e-06	0.600346	-0.279721	-0.123587	-2.26869	0.209598	0.1	-8.60161e-06	-0.363611	0.131034	0.195778	-0.0718561	-0.464019	-0.101546	1.89169	2.05931	-0.0278763	-0.0186735	-0.278724	-0.284477	0.226092	1.76128	1.78231	0.0197158	-0.0137003
2.93333	-0.0566907	-0.136606	-0.217177	0.899797	0.975723	-0.639335	0.307064	0.0899155	-0.340771	-0.984932	0.883867	0.1	8.4727e-06	0.668854	-0.275091	-0.119688	-2.2428	0.211179	0.1	-8.60161e-06	-0.355638	0.114032	0.227181	-0.0360864	-0.469497	-0.102185	1.93407	2.05727	-0.0278763	-0.0186735	-0.301002	-0.298677	0.232176	1.78121	1.79731	0.0197158	-0.0137003
2.94167	-0.06271	-0.119992	-0.227219	0.900014	0.978447	-0.638604	0.253747	0.0564914	-0.347425	-0.955677	0.881943	0.1	8.4727e-06	0.732999	-0.268045	-0.122807	-2.20404	0.21186	0.1	-8.60161e-06	-0.342024	0.0926657	0.257186	-0.00617583	-0.472449	-0.104746	1.9826	2.05705	-0.0278763	-0.0186735	-0.328539	-0.314176	0.234828	1.8086	1.81584	0.0197158	-0.0137003
2.95	-0.0707964	-0.0994813	-0.237201	0.900982	0.98158	-0.637614	0.201124	0.0206021	-0.354588	-0.918347	0.861786	0.1	8.4727e-06	0.792542	-0.258837	-0.132099	-2.15349	0.21224	0.1	-8.60161e-06	-0.322811	0.0678264	0.284664	0.0188106	-0.472993	-0.107364	2.03492	2.05721	-0.0278763	-0.0186735	-0.361176	-0.330104	0.233188	1.84094	1.8368	0.0197158	-0.0137003
2.95833	-0.0808517	-0.0759616	-0.246124	0.902649	0.985047	-0.636445	0.149508	-0.0162888	-0.363235	-0.873082	0.821742	0.1	8.4727e-06	0.847213	-0.247588	-0.146165	-2.09227	0.212801	0.1	-8.60161e-06	-0.29859	0.0406797	0.308484	0.0399269	-0.471441	-0.108168	2.08879	2.05646	-0.0278763	-0.0186735	-0.39859	-0.345509	0.226675	1.87585	1.85868	0.0197158	-0.0137003
2.96667	-0.0924977	-0.0505424	-0.252966	0.904946	0.988776	-0.635203	0.0988861	-0.0526775	-0.37437	-0.820468	0.761312	0.1	8.4727e-06	0.89662	-0.234279	-0.163276	-2.02136	0.214008	0.1	-8.60161e-06	-0.270463	0.0125148	0.327652	0.0581824	-0.468252	-0.105574	2.14233	2.05402	-0.0278763	-0.0186735	-0.440255	-0.359468	0.215065	1.91134	1.87975	0.0197158	-0.0137003
2.975	-0.105127	-0.0244679	-0.256829	0.907783	0.992713	-0.634007	0.049072	-0.087104	-0.388674	-0.76178	0.681557	0.1	8.4727e-06	0.940219	-0.218839	-0.181586	-1.94161	0.216416	0.1	-8.60161e-06	-0.239935	-0.0153763	0.341442	0.0743887	-0.463968	-0.0985146	2.19414	2.04981	-0.0278763	-0.0186735	-0.485385	-0.371212	0.198546	1.94591	1.89827	0.0197158	-0.0137003
2.98333	-0.117989	0.000955702	-0.257063	0.911047	0.996803	-0.632972	-0.000110094	-0.118202	-0.406168	-0.699147	0.585462	0.1	8.4727e-06	0.977339	-0.201262	-0.199341	-1.85371	0.220739	0.1	-8.60161e-06	-0.208738	-0.041775	0.349525	0.0890404	-0.459157	-0.0865725	2.24333	2.04439	-0.0278763	-0.0186735	-0.53288	-0.380239	0.177744	1.97851	1.91269	0.0197158	-0.0137003
2.99167	-0.130293	0.0244341	-0.253357	0.914605	1.00099	-0.632186	-0.0486542	-0.144765	-0.426045	-0.6356	0.478122	0.1	8.4727e-06	1.00727	-0.181746	-0.215063	-1.75822	0.227859	0.1	-8.60161e-06	-0.178647	-0.0655806	0.352031	0.102249	-0.454358	-0.0699785	2.28942	2.03874	-0.0278763	-0.0186735	-0.581309	-0.38638	0.15369	2.00854	1.92189	0.0197158	-0.0137003
3	-0.141305	0.0447625	-0.245774	0.918317	1.00519	-0.631699	-0.0962812	-0.165797	-0.446652	-0.574915	0.366428	0.1	8.4727e-06	1.02934	-0.160779	-0.227697	-1.65568	0.238721	0.1	-8.60161e-06	-0.151297	-0.0858383	0.349559	0.113743	-0.450043	-0.0495025	2.33226	2.03394	-0.0278763	-0.0186735	-0.62895	-0.389827	0.127729	2.03576	1.92531	0.0197158	-0.0137003
3.00833	-0.150419	0.060897	-0.234742	0.922041	1.00935	-0.631508	-0.142414	-0.180589	-0.46569	-0.5213	0.258431	0.1	8.4727e-06	1.04302	-0.139137	-0.236728	-1.5467	0.254187	0.1	-8.60161e-06	-0.128041	-0.101783	0.343105	0.122931	-0.44659	-0.0262828	2.37178	2.03092	-0.0278763	-0.0186735	-0.673895	-0.391089	0.10138	2.06014	1.92314	0.0197158	-0.0137003
3.01667	-0.157184	0.0720715	-0.220972	0.925635	1.01339	-0.631564	-0.186212	-0.188807	-0.480589	-0.47899	0.162338	0.1	8.4727e-06	1.04806	-0.117809	-0.242263	-1.43213	0.274946	0.1	-8.60161e-06	-0.109837	-0.112891	0.333926	0.129011	-0.444258	-0.00165311	2.40793	2.03024	-0.0278763	-0.0186735	-0.714196	-0.3909	0.0761715	2.0818	1.91634	0.0197158	-0.0137003
3.025	-0.161316	0.0779117	-0.205347	0.928976	1.01724	-0.631789	-0.226689	-0.190537	-0.488943	-0.45174	0.085128	0.1	8.4727e-06	1.04448	-0.097833	-0.245022	-1.31316	0.301373	0.1	-8.60161e-06	-0.0972281	-0.118951	0.323368	0.13111	-0.443168	0.0229956	2.4405	2.03211	-0.0278763	-0.0186735	-0.748034	-0.390101	0.0534827	2.10086	1.90648	0.0197158	-0.0137003
3.03333	-0.162689	0.078518	-0.188792	0.931977	1.02083	-0.632088	-0.262833	-0.186333	-0.488998	-0.442432	0.0312987	0.1	8.4727e-06	1.03269	-0.0800637	-0.246218	-1.19149	0.333339	0.1	-8.60161e-06	-0.0903404	-0.12014	0.312653	0.128425	-0.443274	0.0463291	2.4691	2.03639	-0.0278763	-0.0186735	-0.77389	-0.389503	0.0344043	2.11738	1.89551	0.0197158	-0.0137003
3.04167	-0.16131	0.0744843	-0.172152	0.934595	1.02411	-0.632381	-0.293708	-0.177193	-0.479978	-0.452804	0.00209489	0.1	8.4727e-06	1.01347	-0.0650125	-0.247357	-1.06935	0.370079	0.1	-8.60161e-06	-0.0889287	-0.117051	0.302716	0.120355	-0.444357	0.0671572	2.49313	2.04268	-0.0278763	-0.0186735	-0.790693	-0.389779	0.019646	2.13136	1.88543	0.0197158	-0.0137003
3.05	-0.157314	0.0668473	-0.1561	0.936827	1.027	-0.632611	-0.31856	-0.164433	-0.462146	-0.483327	-0.0045497	0.1	8.4727e-06	0.987981	-0.0527859	-0.249994	-0.949571	0.410153	0.1	-8.60161e-06	-0.0924512	-0.110651	0.294092	0.106586	-0.446029	0.084504	2.51191	2.05037	-0.0278763	-0.0186735	-0.797905	-0.39139	0.00951258	2.14269	1.87794	0.0197158	-0.0137003
3.05833	-0.150958	0.0569404	-0.141096	0.938687	1.02945	-0.63275	-0.33689	-0.149554	-0.436783	-0.533286	0.00670989	0.1	8.4727e-06	0.957683	-0.0430909	-0.255413	-0.835372	0.451413	0.1	-8.60161e-06	-0.100165	-0.102167	0.286885	0.0871417	-0.447782	0.0976672	2.52471	2.05862	-0.0278763	-0.0186735	-0.795537	-0.394571	0.00394159	2.1512	1.87414	0.0197158	-0.0137003
3.06667	-0.142588	0.046203	-0.127376	0.940199	1.03138	-0.632806	-0.348488	-0.134055	-0.405884	-0.600969	0.0298907	0.1	8.4727e-06	0.924222	-0.0353575	-0.264408	-0.730202	0.491158	0.1	-8.60161e-06	-0.11122	-0.0929277	0.280809	0.0624075	-0.44905	0.106266	2.53092	2.06635	-0.0278763	-0.0186735	-0.784091	-0.399348	0.00258984	2.15676	1.8743	0.0197158	-0.0137003
3.075	-0.132617	0.0359896	-0.114973	0.941384	1.03274	-0.632802	-0.35343	-0.119303	-0.371875	-0.683956	0.0590502	0.1	8.4727e-06	0.889283	-0.0288664	-0.277085	-0.63737	0.526344	0.1	-8.60161e-06	-0.124762	-0.0841852	0.275277	0.0331164	-0.449302	0.110265	2.53012	2.0723	-0.0278763	-0.0186735	-0.76446	-0.405583	0.00493873	2.15927	1.87786	0.0197158	-0.0137003
3.08333	-0.121494	0.0274194	-0.103757	0.942257	1.03349	-0.632779	-0.352031	-0.106472	-0.337375	-0.779454	0.0893503	0.1	8.4727e-06	0.854426	-0.0228405	-0.292722	-0.55966	0.553844	0.1	-8.60161e-06	-0.140011	-0.0769658	0.26951	0.000305273	-0.44811	0.109967	2.52212	2.07519	-0.0278763	-0.0186735	-0.737788	-0.413032	0.0103959	2.15876	1.8835	0.0197158	-0.0137003
3.09167	-0.109674	0.0212838	-0.0934763	0.942821	1.03362	-0.632786	-0.344769	-0.0965055	-0.304924	-0.884595	0.117637	0.1	8.4727e-06	0.82094	-0.0165227	-0.309813	-0.499013	0.570774	0.1	-8.60161e-06	-0.156324	-0.0719781	0.262645	-0.0347685	-0.445201	0.105957	2.50694	2.07403	-0.0278763	-0.0186735	-0.705321	-0.421405	0.0183789	2.15535	1.88935	0.0197158	-0.0137003
3.1	-0.0975801	0.0180146	-0.083805	0.943071	1.03309	-0.632865	-0.332192	-0.0900556	-0.27659	-0.996628	0.142491	0.1	8.4727e-06	0.789758	-0.00926846	-0.326386	-0.456372	0.574849	0.1	-8.60161e-06	-0.17324	-0.0695844	0.253847	-0.0707394	-0.440458	0.0990041	2.48472	2.06857	-0.0278763	-0.0186735	-0.668262	-0.430416	0.0283737	2.14923	1.8934	0.0197158	-0.0137003
3.10833	-0.0855576	0.0177172	-0.074402	0.942993	1.03192	-0.633048	-0.314826	-0.087483	-0.253733	-1.11306	0.163944	0.1	8.4727e-06	0.761445	-0.00059805	-0.340393	-0.431725	0.564753	0.1	-8.60161e-06	-0.190492	-0.0698441	0.242398	-0.106259	-0.433883	0.0899211	2.45567	2.05951	-0.0278763	-0.0186735	-0.627646	-0.439834	0.0399681	2.1406	1.89383	0.0197158	-0.0137003
3.11667	-0.0738532	0.0202513	-0.0649704	0.942569	1.0301	-0.633347	-0.293099	-0.0889083	-0.236955	-1.23174	0.183056	0.1	8.4727e-06	0.736275	0.00977585	-0.35008	-0.424349	0.54059	0.1	-8.60161e-06	-0.207995	-0.072606	0.227775	-0.140114	-0.425545	0.0794244	2.41996	2.04874	-0.0278763	-0.0186735	-0.584257	-0.449505	0.0528629	2.12964	1.88941	0.0197158	-0.0137003
3.125	-0.0626218	0.0253339	-0.0553149	0.941772	1.02765	-0.63375	-0.26726	-0.0942523	-0.226099	-1.35086	0.201373	0.1	8.4727e-06	0.714337	0.0219109	-0.354374	-0.433165	0.504377	0.1	-8.60161e-06	-0.225806	-0.077611	0.209701	-0.171313	-0.415525	0.0680184	2.37772	2.03911	-0.0278763	-0.0186735	-0.53859	-0.45935	0.0668594	2.11643	1.87977	0.0197158	-0.0137003
